HIERARCHY
ROOT Hips
{
	OFFSET 0.000000 0.000000 0.000000
	CHANNELS 6 Xposition Yposition Zposition Zrotation Yrotation Xrotation
	JOINT LeftUpLeg
	{
		OFFSET 9.14595 0 0
		CHANNELS 3 Zrotation Yrotation Xrotation
		JOINT LeftLeg
		{
			OFFSET 0 -43.2472 0
			CHANNELS 3 Zrotation Yrotation Xrotation
			JOINT LeftFoot
			{
				OFFSET 0 -39.3015 0
				CHANNELS 3 Zrotation Yrotation Xrotation
				JOINT LeftToe
				{
					OFFSET 0 -6.36299 14.6734
					CHANNELS 3 Zrotation Yrotation Xrotation
					JOINT LToeEnd
					{
						OFFSET 0 0 4.22007
						CHANNELS 3 Zrotation Yrotation Xrotation
						End Site
						{
							OFFSET 0.0 0.0 0.0
						}
					}
				}
			}
		}
	}
	JOINT RightUpLeg
	{
		OFFSET -9.14595 0 0
		CHANNELS 3 Zrotation Yrotation Xrotation
		JOINT RightLeg
		{
			OFFSET 0 -43.2472 0
			CHANNELS 3 Zrotation Yrotation Xrotation
			JOINT RightFoot
			{
				OFFSET 0 -39.3015 0
				CHANNELS 3 Zrotation Yrotation Xrotation
				JOINT RightToe
				{
					OFFSET 0 -6.36299 14.6734
					CHANNELS 3 Zrotation Yrotation Xrotation
					JOINT RToeEnd
					{
						OFFSET 0 0 4.22007
						CHANNELS 3 Zrotation Yrotation Xrotation
						End Site
						{
							OFFSET 0.0 0.0 0.0
						}
					}
				}
			}
		}
	}
	JOINT Spine1
	{
		OFFSET 0 5.32198 0
		CHANNELS 3 Zrotation Yrotation Xrotation
		JOINT Spine2
		{
			OFFSET 0 9.88454 0
			CHANNELS 3 Zrotation Yrotation Xrotation
			JOINT Chest
			{
				OFFSET 0 10.4705 0
				CHANNELS 3 Zrotation Yrotation Xrotation
				JOINT Neck
				{
					OFFSET 0 20.2251 0
					CHANNELS 3 Zrotation Yrotation Xrotation
					JOINT Head
					{
						OFFSET 0 14.0184 1.95005
						CHANNELS 3 Zrotation Yrotation Xrotation
						JOINT HeadEnd
						{
							OFFSET 0 13.1925 0
							CHANNELS 3 Zrotation Yrotation Xrotation
							End Site
							{
								OFFSET 0.0 0.0 0.0
							}
						}
					}
				}
				JOINT LeftShoulder
				{
					OFFSET 4.32209 17.5503 0
					CHANNELS 3 Zrotation Yrotation Xrotation
					JOINT LeftArm
					{
						OFFSET 14.8714 0 0
						CHANNELS 3 Zrotation Yrotation Xrotation
						JOINT LeftForeArm
						{
							OFFSET 23.7007 0 0
							CHANNELS 3 Zrotation Yrotation Xrotation
							JOINT LeftHand
							{
								OFFSET 19.1112 0 0
								CHANNELS 3 Zrotation Yrotation Xrotation
								JOINT LeftHandPalm
								{
									OFFSET 0 0 0
									CHANNELS 3 Zrotation Yrotation Xrotation
									JOINT FZLeftThumb1
									{
										OFFSET -0.59711 -1.83115 3.06628
										CHANNELS 3 Zrotation Yrotation Xrotation
										JOINT FZLeftThumb2
										{
											OFFSET 1.29678 -1.36788 1.83268
											CHANNELS 3 Zrotation Yrotation Xrotation
											JOINT FZLeftThumb3
											{
												OFFSET 1.93031 -2.00253 2.64919
												CHANNELS 3 Zrotation Yrotation Xrotation
												End Site
												{
													OFFSET 0.0 0.0 0.0
												}
											}
										}
									}
									JOINT FZLeftIndex1
									{
										OFFSET 6.11343 -1.1628 2.75002
										CHANNELS 3 Zrotation Yrotation Xrotation
										JOINT FZLeftIndex2
										{
											OFFSET 3.88139 -0.928421 1.01818
											CHANNELS 3 Zrotation Yrotation Xrotation
											JOINT FZLeftIndex3
											{
												OFFSET 1.49382 -0.458603 0.322774
												CHANNELS 3 Zrotation Yrotation Xrotation
												End Site
												{
													OFFSET 0.0 0.0 0.0
												}
											}
										}
									}
									JOINT FZLeftMiddle1
									{
										OFFSET 6.12023 -1.14722 0.290579
										CHANNELS 3 Zrotation Yrotation Xrotation
										JOINT FZLeftMiddle2
										{
											OFFSET 4.24735 -1.08437 0.104351
											CHANNELS 3 Zrotation Yrotation Xrotation
											JOINT FZLeftMiddle3
											{
												OFFSET 2.04489 -0.741196 0.00429702
												CHANNELS 3 Zrotation Yrotation Xrotation
												End Site
												{
													OFFSET 0.0 0.0 0.0
												}
											}
										}
									}
									JOINT FZLeftRing1
									{
										OFFSET 5.77174 -1.28551 -1.90363
										CHANNELS 3 Zrotation Yrotation Xrotation
										JOINT FZLeftRing2
										{
											OFFSET 3.29582 -0.998688 -0.9005
											CHANNELS 3 Zrotation Yrotation Xrotation
											JOINT FZLeftRing3
											{
												OFFSET 2.49246 -0.971542 -0.650992
												CHANNELS 3 Zrotation Yrotation Xrotation
												End Site
												{
													OFFSET 0.0 0.0 0.0
												}
											}
										}
									}
									JOINT FZLeftPinky1
									{
										OFFSET 4.89582 -1.51128 -3.95336
										CHANNELS 3 Zrotation Yrotation Xrotation
										JOINT FZLeftPinky2
										{
											OFFSET 2.15219 -0.837952 -1.2451
											CHANNELS 3 Zrotation Yrotation Xrotation
											JOINT FZLeftPinky3
											{
												OFFSET 1.41002 -0.66391 -0.765082
												CHANNELS 3 Zrotation Yrotation Xrotation
												End Site
												{
													OFFSET 0.0 0.0 0.0
												}
											}
										}
									}
								}
							}
						}
					}
				}
				JOINT RightShoulder
				{
					OFFSET -4.32209 17.5509 0
					CHANNELS 3 Zrotation Yrotation Xrotation
					JOINT RightArm
					{
						OFFSET -14.8714 0 0
						CHANNELS 3 Zrotation Yrotation Xrotation
						JOINT RightForeArm
						{
							OFFSET -23.7008 0 0
							CHANNELS 3 Zrotation Yrotation Xrotation
							JOINT RightHand
							{
								OFFSET -19.1112 0.00035344 0
								CHANNELS 3 Zrotation Yrotation Xrotation
								JOINT RightHandPalm
								{
									OFFSET 0 0 0
									CHANNELS 3 Zrotation Yrotation Xrotation
									JOINT FZRightThumb1
									{
										OFFSET 0.597107 -1.83099 3.06628
										CHANNELS 3 Zrotation Yrotation Xrotation
										JOINT FZRightThumb2
										{
											OFFSET -1.29681 -1.36801 1.83268
											CHANNELS 3 Zrotation Yrotation Xrotation
											JOINT FZRightThumb3
											{
												OFFSET -1.9303 -2.002 2.64919
												CHANNELS 3 Zrotation Yrotation Xrotation
												End Site
												{
													OFFSET 0.0 0.0 0.0
												}
											}
										}
									}
									JOINT FZRightIndex1
									{
										OFFSET -6.1134 -1.162 2.75002
										CHANNELS 3 Zrotation Yrotation Xrotation
										JOINT FZRightIndex2
										{
											OFFSET -3.8814 -0.929001 1.01818
											CHANNELS 3 Zrotation Yrotation Xrotation
											JOINT FZRightIndex3
											{
												OFFSET -1.4938 -0.457993 0.322774
												CHANNELS 3 Zrotation Yrotation Xrotation
												End Site
												{
													OFFSET 0.0 0.0 0.0
												}
											}
										}
									}
									JOINT FZRightMiddle1
									{
										OFFSET -6.12019 -1.147 0.29058
										CHANNELS 3 Zrotation Yrotation Xrotation
										JOINT FZRightMiddle2
										{
											OFFSET -4.24741 -1.084 0.10435
											CHANNELS 3 Zrotation Yrotation Xrotation
											JOINT FZRightMiddle3
											{
												OFFSET -2.0449 -0.740997 0.00430012
												CHANNELS 3 Zrotation Yrotation Xrotation
												End Site
												{
													OFFSET 0.0 0.0 0.0
												}
											}
										}
									}
									JOINT FZRightRing1
									{
										OFFSET -5.7717 -1.285 -1.90363
										CHANNELS 3 Zrotation Yrotation Xrotation
										JOINT FZRightRing2
										{
											OFFSET -3.2959 -0.998993 -0.9005
											CHANNELS 3 Zrotation Yrotation Xrotation
											JOINT FZRightRing3
											{
												OFFSET -2.4924 -0.971008 -0.65099
												CHANNELS 3 Zrotation Yrotation Xrotation
												End Site
												{
													OFFSET 0.0 0.0 0.0
												}
											}
										}
									}
									JOINT FZRightPinky1
									{
										OFFSET -4.8958 -1.511 -3.95337
										CHANNELS 3 Zrotation Yrotation Xrotation
										JOINT FZRightPinky2
										{
											OFFSET -2.1522 -0.837997 -1.24509
											CHANNELS 3 Zrotation Yrotation Xrotation
											JOINT FZRightPinky3
											{
												OFFSET -1.41 -0.664002 -0.76508
												CHANNELS 3 Zrotation Yrotation Xrotation
												End Site
												{
													OFFSET 0.0 0.0 0.0
												}
											}
										}
									}
								}
							}
						}
					}
				}
			}
		}
	}
}
MOTION
Frames: 6
Frame Time: 0.00833333
-421.191040 933.525696 555.538391 177.409395 75.826268 172.655606 163.144990 -76.186515 -179.526306 -4.698983 15.944793 19.398672 -3.435572 -25.100398 7.181260 3.327695 10.567864 -7.377079 -0.000010 0.000089 -2.848311 -164.220540 -76.879220 169.668751 1.539158 -20.910258 -4.597650 7.362404 24.078064 -8.964756 -8.426614 -3.185515 8.887480 0.000006 0.000068 0.619069 165.787789 -75.205719 -167.362244 0.026813 0.399388 7.054777 -9.918939 -0.924473 4.904038 -0.476503 -4.098151 13.769643 5.540832 -3.990065 -10.529602 -2.649308 9.153759 -15.798809 -3.224827 5.466260 -8.850415 -68.453467 -4.796696 39.215049 76.610190 -4.365955 -26.993124 15.630028 20.147050 13.749002 -6.676513 14.521127 7.215606 0.000000 0.000000 0.000000 0.000000 0.000000 0.000000 0.000000 0.000000 0.000000 0.000000 0.000000 0.000000 0.000000 0.000000 0.000000 0.000000 0.000000 0.000000 0.000000 0.000000 0.000000 0.000000 0.000000 0.000000 0.000000 0.000000 0.000000 0.000000 0.000000 0.000000 0.000000 0.000000 0.000000 0.000000 0.000000 0.000000 0.000000 0.000000 0.000000 0.000000 0.000000 0.000000 0.000000 0.000000 0.000000 8.815747 0.713162 -3.589739 59.060275 26.231915 50.103362 -57.875410 -29.778455 -19.861295 -7.075208 -11.941288 -2.896326 1.186473 -13.362040 15.145276 0.000000 0.000000 0.000000 0.000000 0.000000 0.000000 0.000000 0.000000 0.000000 0.000000 0.000000 0.000000 0.000000 0.000000 0.000000 0.000000 0.000000 0.000000 0.000000 0.000000 0.000000 0.000000 0.000000 0.000000 0.000000 0.000000 0.000000 0.000000 0.000000 0.000000 0.000000 0.000000 0.000000 0.000000 0.000000 0.000000 0.000000 0.000000 0.000000 0.000000 0.000000 0.000000 0.000000 0.000000 0.000000
-343.465546 921.292236 491.819489 -172.550128 84.218458 -176.739268 175.042363 -84.684856 -179.194483 -3.480475 14.910421 4.814560 1.766213 -27.457808 1.536830 -2.034774 12.323795 -1.333456 0.000004 0.000089 -1.234819 -111.739445 -83.671523 120.818887 4.040512 -15.397881 -0.203054 8.597359 18.680862 -22.055400 -11.786537 -1.798951 15.342082 -0.000004 -0.000024 1.016374 172.882155 -82.738935 -174.748111 -0.203505 -1.555361 5.866743 -5.779565 2.498462 9.335616 -1.562977 -4.063359 12.924206 5.309637 -3.655464 -10.796068 -2.556614 8.970135 -15.493552 -5.851911 4.047338 -9.953147 -67.013091 -6.125143 43.114030 74.741115 4.818458 -26.360680 5.806910 21.287765 12.651101 1.378228 11.506675 4.342720 0.000000 0.000000 0.000000 0.000000 0.000000 0.000000 0.000000 0.000000 0.000000 0.000000 0.000000 0.000000 0.000000 0.000000 0.000000 0.000000 0.000000 0.000000 0.000000 0.000000 0.000000 0.000000 0.000000 0.000000 0.000000 0.000000 0.000000 0.000000 0.000000 0.000000 0.000000 0.000000 0.000000 0.000000 0.000000 0.000000 0.000000 0.000000 0.000000 0.000000 0.000000 0.000000 0.000000 0.000000 0.000000 9.185451 -0.808580 -5.237964 58.098362 17.495033 55.414582 -61.056717 -29.871042 -22.630806 -1.191549 -12.838855 -7.474493 -3.070754 -12.081819 13.735344 0.000000 0.000000 0.000000 0.000000 0.000000 0.000000 0.000000 0.000000 0.000000 0.000000 0.000000 0.000000 0.000000 0.000000 0.000000 0.000000 0.000000 0.000000 0.000000 0.000000 0.000000 0.000000 0.000000 0.000000 0.000000 0.000000 0.000000 0.000000 0.000000 0.000000 0.000000 0.000000 0.000000 0.000000 0.000000 0.000000 0.000000 0.000000 0.000000 0.000000 0.000000 0.000000 0.000000 0.000000 0.000000
-317.666351 924.160278 467.188660 -176.039561 87.810585 179.839381 -157.614681 -89.015200 153.702577 -2.789049 13.567502 8.359196 3.855624 -24.485996 -7.081915 -1.448586 10.135963 1.321779 0.000002 0.000031 0.315754 -70.709839 -81.651448 76.901615 5.006680 -11.371904 9.283549 7.850809 10.310552 -30.699587 -10.089342 1.877108 12.958988 -0.000000 -0.000017 3.478550 177.736137 -86.227805 179.938665 -1.306834 -1.578218 6.160867 -4.325288 2.753794 8.798114 -1.092892 -3.824795 13.089136 5.192073 -3.625366 -10.718390 -2.494073 8.831952 -15.315149 -4.372670 4.290209 -9.450005 -67.391560 -8.018517 43.620114 72.938346 6.434040 -24.215438 3.785701 22.937240 12.444002 2.630147 9.690997 2.411247 0.000000 0.000000 0.000000 0.000000 0.000000 0.000000 0.000000 0.000000 0.000000 0.000000 0.000000 0.000000 0.000000 0.000000 0.000000 0.000000 0.000000 0.000000 0.000000 0.000000 0.000000 0.000000 0.000000 0.000000 0.000000 0.000000 0.000000 0.000000 0.000000 0.000000 0.000000 0.000000 0.000000 0.000000 0.000000 0.000000 0.000000 0.000000 0.000000 0.000000 0.000000 0.000000 0.000000 0.000000 0.000000 9.124660 -1.728529 -5.088572 59.693672 14.564368 50.372402 -64.185123 -25.897585 -18.588104 -2.885446 -12.170654 -10.660323 -0.689576 -10.911640 14.817768 0.000000 0.000000 0.000000 0.000000 0.000000 0.000000 0.000000 0.000000 0.000000 0.000000 0.000000 0.000000 0.000000 0.000000 0.000000 0.000000 0.000000 0.000000 0.000000 0.000000 0.000000 0.000000 0.000000 0.000000 0.000000 0.000000 0.000000 0.000000 0.000000 0.000000 0.000000 0.000000 0.000000 0.000000 0.000000 0.000000 0.000000 0.000000 0.000000 0.000000 0.000000 0.000000 0.000000 0.000000 0.000000
-296.523407 925.025513 444.752441 3.334979 88.067562 -0.974273 -16.101839 -83.905527 13.300269 -2.026725 10.900818 9.945227 7.259725 -22.624570 -13.885136 -3.273227 8.978007 4.250183 -0.000005 -0.000007 0.548514 -56.499058 -77.484849 58.850004 6.518512 -8.684482 20.782793 7.631320 10.219796 -37.950121 -11.241110 0.561864 10.264338 -0.000001 -0.000020 5.324680 -82.593005 -89.247049 80.854350 -1.435930 -1.025214 6.261427 -3.685841 2.926914 7.575133 -1.478615 -3.909948 13.247165 5.490304 -3.641276 -10.466436 -2.145695 8.578433 -15.060687 -3.797925 3.649445 -9.260901 -66.301373 -8.570972 41.496832 71.435938 3.954393 -24.411022 5.170091 23.150280 13.869222 1.709993 9.930847 2.168130 0.000000 0.000000 0.000000 0.000000 0.000000 0.000000 0.000000 0.000000 0.000000 0.000000 0.000000 0.000000 0.000000 0.000000 0.000000 0.000000 0.000000 0.000000 0.000000 0.000000 0.000000 0.000000 0.000000 0.000000 0.000000 0.000000 0.000000 0.000000 0.000000 0.000000 0.000000 0.000000 0.000000 0.000000 0.000000 0.000000 0.000000 0.000000 0.000000 0.000000 0.000000 0.000000 0.000000 0.000000 0.000000 8.438368 -1.840038 -4.704833 60.278114 12.291407 46.716516 -65.709889 -21.548787 -18.695979 -4.046449 -12.905270 -13.539781 -0.387475 -11.151921 18.337332 0.000000 0.000000 0.000000 0.000000 0.000000 0.000000 0.000000 0.000000 0.000000 0.000000 0.000000 0.000000 0.000000 0.000000 0.000000 0.000000 0.000000 0.000000 0.000000 0.000000 0.000000 0.000000 0.000000 0.000000 0.000000 0.000000 0.000000 0.000000 0.000000 0.000000 0.000000 0.000000 0.000000 0.000000 0.000000 0.000000 0.000000 0.000000 0.000000 0.000000 0.000000 0.000000 0.000000 0.000000 0.000000
-276.851624 924.663696 424.738464 6.221773 83.623289 1.578403 -17.890203 -78.340585 16.620940 -0.876286 10.812810 8.665901 8.723349 -20.343687 -16.970986 -4.741980 6.482851 6.338725 -0.000005 -0.000048 0.527121 -53.140309 -73.621338 49.190048 8.237866 -3.106193 36.200983 8.790213 9.327607 -45.042652 -12.987203 -1.192665 5.763795 0.000002 0.000024 6.729759 -28.804552 -84.999527 26.997203 -1.875618 -0.823345 6.387008 -1.870978 3.613117 7.282140 -1.836776 -3.857373 13.014346 5.609135 -3.820930 -10.377206 -1.821694 8.117387 -14.941373 -3.362119 3.117059 -9.524417 -65.369285 -9.435639 38.724354 69.834862 0.629339 -23.933571 6.986940 22.466265 13.377776 0.404665 10.963056 3.757564 0.000000 0.000000 0.000000 0.000000 0.000000 0.000000 0.000000 0.000000 0.000000 0.000000 0.000000 0.000000 0.000000 0.000000 0.000000 0.000000 0.000000 0.000000 0.000000 0.000000 0.000000 0.000000 0.000000 0.000000 0.000000 0.000000 0.000000 0.000000 0.000000 0.000000 0.000000 0.000000 0.000000 0.000000 0.000000 0.000000 0.000000 0.000000 0.000000 0.000000 0.000000 0.000000 0.000000 0.000000 0.000000 9.147850 -1.835576 -4.759754 58.170799 13.671382 47.193872 -64.033570 -21.256965 -18.519517 -2.993786 -12.604187 -14.088887 -1.859915 -12.763131 18.336052 0.000000 0.000000 0.000000 0.000000 0.000000 0.000000 0.000000 0.000000 0.000000 0.000000 0.000000 0.000000 0.000000 0.000000 0.000000 0.000000 0.000000 0.000000 0.000000 0.000000 0.000000 0.000000 0.000000 0.000000 0.000000 0.000000 0.000000 0.000000 0.000000 0.000000 0.000000 0.000000 0.000000 0.000000 0.000000 0.000000 0.000000 0.000000 0.000000 0.000000 0.000000 0.000000 0.000000 0.000000 0.000000
-253.137512 923.733521 407.140961 7.529170 79.403722 2.229490 -23.823162 -74.409337 24.857581 0.422820 13.665376 4.671122 9.233145 -18.721349 -17.722445 -6.128519 3.323668 7.694980 0.000000 0.000003 0.713567 -51.190837 -70.832915 39.768642 9.903159 1.781951 53.680121 14.875599 9.793731 -50.730907 -17.548187 0.302271 0.113140 -0.000000 0.000003 6.816255 -31.024190 -80.253600 28.826295 -2.255477 -1.054494 6.426955 0.525139 4.362871 6.924605 -2.390874 -3.314669 13.856370 5.780488 -3.656366 -10.575696 -1.584540 7.371056 -15.366896 -2.513182 3.031304 -9.063857 -64.308523 -9.971900 35.845882 68.115474 -2.482973 -24.171984 8.688573 22.367468 13.316443 -0.810401 11.294153 4.736951 0.000000 0.000000 0.000000 0.000000 0.000000 0.000000 0.000000 0.000000 0.000000 0.000000 0.000000 0.000000 0.000000 0.000000 0.000000 0.000000 0.000000 0.000000 0.000000 0.000000 0.000000 0.000000 0.000000 0.000000 0.000000 0.000000 0.000000 0.000000 0.000000 0.000000 0.000000 0.000000 0.000000 0.000000 0.000000 0.000000 0.000000 0.000000 0.000000 0.000000 0.000000 0.000000 0.000000 0.000000 0.000000 9.451638 -1.947707 -3.879126 57.836582 16.798633 45.868486 -63.582047 -19.583438 -16.625291 -4.772658 -13.661196 -10.646599 0.032956 -13.705377 15.848912 0.000000 0.000000 0.000000 0.000000 0.000000 0.000000 0.000000 0.000000 0.000000 0.000000 0.000000 0.000000 0.000000 0.000000 0.000000 0.000000 0.000000 0.000000 0.000000 0.000000 0.000000 0.000000 0.000000 0.000000 0.000000 0.000000 0.000000 0.000000 0.000000 0.000000 0.000000 0.000000 0.000000 0.000000 0.000000 0.000000 0.000000 0.000000 0.000000 0.000000 0.000000 0.000000 0.000000 0.000000 0.000000
